# 3ds Max Wavefront OBJ Exporter v0.99 - (c)2007 guruware
# File Created: 01.04.2025 11:40:22

#
# object Box001
#

v  -16.8839 18.7664 0.9950
v  -5.3234 18.7664 0.9950
v  -6.0411 18.7664 4.7055
v  -18.3568 18.7664 4.7055
v  28.2128 18.7664 0.9950
v  28.2128 18.7664 -11.3034
v  29.6857 18.7664 -15.0139
v  29.6857 18.7664 4.7055
v  11.9161 18.7664 -11.3034
v  12.3244 18.7664 -15.0139
v  -16.8839 18.7664 -11.3034
v  -18.3568 18.7664 -15.0139
v  -5.0097 26.7586 3.8367
v  -16.2402 26.7586 3.8367
v  27.5691 26.7586 -14.1451
v  27.5691 26.7586 3.8367
v  11.7376 26.7586 -14.1451
v  -16.2402 26.7586 -14.1451
v  -3.4995 28.1976 2.5647
v  -13.1412 28.1976 2.5647
v  24.4701 28.1976 -12.8731
v  24.4701 28.1976 2.5647
v  10.8784 28.1976 -12.8731
v  -13.1412 28.1976 -12.8731
v  4.4974 29.4936 -2.6319
v  3.2695 29.4936 -2.6319
v  8.0594 29.4936 -7.6765
v  8.0594 29.4936 -2.6319
v  6.3285 29.4936 -7.6765
v  3.2695 29.4936 -7.6765
v  4.4974 125.5184 -2.6319
v  3.2695 125.5184 -2.6319
v  8.0594 125.5184 -7.6765
v  8.0594 125.5184 -2.6319
v  6.3285 125.5184 -7.6765
v  3.2695 125.5184 -7.6765
v  6.3285 125.5184 -2.6319
v  11.9161 18.7664 0.9950
v  12.3244 18.7664 4.7055
v  -5.3234 18.7664 -11.3034
v  -6.0411 18.7664 -15.0139
v  11.7376 26.7586 3.8367
v  -5.0097 26.7586 -14.1451
v  10.8784 28.1976 2.5647
v  -3.4995 28.1976 -12.8731
v  6.3285 29.4936 -2.6319
v  4.4974 29.4936 -7.6765
v  4.4974 125.5184 -7.6765
# 48 vertices

vn 0.0000 -1.0000 -0.0000
vn 0.0000 -0.6678 0.7443
vn -0.6453 -0.4797 0.5945
vn 0.6453 -0.4797 -0.5945
vn 0.6453 -0.4797 0.5945
vn 0.0000 -0.6678 -0.7443
vn -0.6453 -0.4797 -0.5945
vn 0.0000 0.4042 0.9147
vn -0.5712 0.5616 0.5986
vn 0.5712 0.5616 -0.5986
vn 0.5712 0.5616 0.5986
vn 0.0000 0.4042 -0.9147
vn -0.5712 0.5616 -0.5986
vn -0.0000 0.8548 0.5190
vn -0.1659 0.9154 0.3667
vn 0.1659 0.9154 -0.3667
vn 0.1659 0.9154 0.3667
vn 0.0000 0.8548 -0.5190
vn -0.1659 0.9154 -0.3667
vn 0.0000 0.6156 0.7880
vn -0.3174 0.8520 0.4164
vn 0.3174 0.8520 -0.4164
vn 0.3174 0.8520 0.4164
vn 0.0000 0.6156 -0.7880
vn -0.3174 0.8520 -0.4164
vn 0.0000 0.7071 0.7071
vn -0.5774 0.5774 0.5774
vn 0.5774 0.5774 -0.5774
vn 0.5774 0.5774 0.5774
vn 0.0000 0.7071 -0.7071
vn -0.5774 0.5774 -0.5774
vn 0.0000 0.8548 0.5190
vn -0.0000 0.8548 -0.5190
# 33 vertex normals

vt 0.0000 1.0000 0.0000
vt 0.2564 1.0000 0.0000
vt 1.0000 1.0000 0.0000
vt 0.3614 1.0000 0.0000
vt 0.6386 1.0000 0.0000
vt 0.7436 1.0000 0.0000
# 6 texture coords

o Box001
g Box001
s off
f 1/1/1 2/2/1 3/2/2 4/1/3 
f 5/1/1 6/3/1 7/3/4 8/1/5 
f 6/1/1 9/4/1 10/4/6 7/1/4 
f 11/1/1 1/3/1 4/3/3 12/1/7 
f 4/1/3 3/2/2 13/2/8 14/1/9 
f 8/1/5 7/3/4 15/3/10 16/1/11 
f 7/1/4 10/4/6 17/4/12 15/1/10 
f 12/1/7 4/3/3 14/3/9 18/1/13 
f 14/1/9 13/2/8 19/2/14 20/1/15 
f 16/1/11 15/3/10 21/3/16 22/1/17 
f 15/1/10 17/4/12 23/4/18 21/1/16 
f 18/1/13 14/3/9 20/3/15 24/1/19 
f 20/1/15 19/2/14 25/2/20 26/1/21 
f 22/1/17 21/3/16 27/3/22 28/1/23 
f 21/1/16 23/4/18 29/4/24 27/1/22 
f 24/1/19 20/3/15 26/3/21 30/1/25 
f 26/1/21 25/2/20 31/2/26 32/1/27 
f 28/1/23 27/3/22 33/3/28 34/1/29 
f 27/1/22 29/4/24 35/4/30 33/1/28 
f 30/1/25 26/3/21 32/3/27 36/1/31 
f 34/3/29 33/3/28 35/3/30 37/5/26 
f 2/2/1 38/5/1 39/5/2 3/2/2 
f 40/6/1 11/3/1 12/3/7 41/6/6 
f 3/2/2 39/5/2 42/5/8 13/2/8 
f 41/6/6 12/3/7 18/3/13 43/6/12 
f 13/2/8 42/5/8 44/5/32 19/2/14 
f 43/6/12 18/3/13 24/3/19 45/6/33 
f 19/2/14 44/5/32 46/5/20 25/2/20 
f 45/6/33 24/3/19 30/3/25 47/6/24 
f 25/2/20 46/5/20 37/5/26 31/2/26 
f 47/6/24 30/3/25 36/3/31 48/6/30 
f 48/3/30 36/3/31 32/1/27 31/2/26 
f 9/4/1 40/6/1 41/6/6 10/4/6 
f 10/4/6 41/6/6 43/6/12 17/4/12 
f 17/4/12 43/6/12 45/6/33 23/4/18 
f 23/4/18 45/6/33 47/6/24 29/4/24 
f 29/4/24 47/6/24 48/6/30 35/4/30 
f 35/3/30 48/3/30 31/2/26 37/5/26 
f 38/5/1 5/3/1 8/3/5 39/5/2 
f 39/5/2 8/3/5 16/3/11 42/5/8 
f 42/5/8 16/3/11 22/3/17 44/5/32 
f 44/5/32 22/3/17 28/3/23 46/5/20 
f 46/5/20 28/3/23 34/3/29 37/5/26 
# 43 polygons

#
# object Object001
#

v  -16.8839 0.0000 -0.2450
v  -16.8839 0.0000 -10.0634
v  -7.2576 0.0000 -10.0634
v  -7.2576 0.0000 -0.2450
v  -5.3234 18.7664 0.9950
v  -16.8839 18.7664 0.9950
v  28.2128 0.0000 -0.4584
v  28.2128 0.0000 -9.8501
v  28.2128 18.7664 -11.3034
v  28.2128 18.7664 0.9950
v  13.7414 0.0000 -9.8501
v  11.9161 18.7664 -11.3034
v  -16.8839 18.7664 -11.3034
v  -3.9784 0.0000 -10.0355
v  12.4940 0.0000 -10.0355
v  12.4940 0.0000 -0.2729
v  -3.4217 0.0000 -0.2729
v  -5.3234 18.7664 -11.3034
v  13.6346 0.0000 -0.4584
v  11.9161 18.7664 0.9950
# 20 vertices

vn -0.5809 -0.5942 0.5563
vn -0.5809 -0.5942 -0.5563
vn 0.5470 -0.6213 -0.5611
vn 0.5470 -0.6213 0.5611
vn 0.0004 -0.1687 0.9857
vn -0.6918 -0.0476 0.7205
vn 0.5815 -0.5970 0.5526
vn 0.5815 -0.5970 -0.5526
vn 0.6891 -0.0560 -0.7225
vn 0.6891 -0.0560 0.7225
vn -0.5458 -0.6234 -0.5599
vn 0.0051 -0.1038 -0.9946
vn -0.6918 -0.0476 -0.7205
vn -0.5756 -0.6107 -0.5438
vn 0.5909 -0.5861 -0.5545
vn 0.5909 -0.5861 0.5545
vn -0.5292 -0.6241 0.5748
vn -0.0008 -0.1534 -0.9882
vn -0.5550 -0.6208 0.5537
vn 0.0049 -0.1011 0.9949
# 20 vertex normals

vt 1.0000 0.0000 0.0000
vt 1.0000 1.0000 0.0000
vt 0.7436 1.0000 0.0000
vt 0.7436 0.0000 0.0000
vt 0.0000 0.0000 0.0000
vt 0.2564 0.0000 0.0000
vt 0.2564 1.0000 0.0000
vt 0.0000 1.0000 0.0000
vt 0.3614 1.0000 0.0000
vt 0.6755 1.0000 0.0000
vt 0.3614 0.0000 0.0000
vt 0.6631 0.0000 0.0000
vt 0.6755 0.0000 0.0000
vt 0.2588 0.0000 0.0000
vt 0.3369 0.0000 0.0000
vt 0.6386 0.0000 0.0000
vt 0.6386 1.0000 0.0000
vt 0.7412 0.0000 0.0000
# 18 texture coords

o Object001
g Object001
s 2
f 49/7/34 50/8/35 51/9/36 52/10/37 
s 8
f 49/11/34 52/12/37 53/13/38 54/14/39 
s 16
f 55/11/40 56/7/41 57/8/42 58/14/43 
s 32
f 56/11/41 59/12/44 60/15/45 57/14/42 
s 64
f 50/11/35 49/7/34 54/8/39 61/14/46 
s 2
f 62/16/47 63/15/48 64/17/49 65/18/50 
s 32
f 51/10/36 50/7/35 61/8/46 66/9/51 
f 63/17/48 62/19/47 66/9/51 60/15/45 
s 2
f 59/13/44 56/14/41 55/11/40 67/20/52 
s 8
f 65/21/50 64/22/49 68/23/53 53/13/38 
f 67/24/52 55/7/40 58/8/43 68/23/53 
s off
f 66/9/51 53/13/38 52/10/37 51/9/36 
f 66/9/51 62/16/47 65/18/50 53/13/38 
f 60/15/45 68/23/53 64/17/49 63/15/48 
f 68/23/53 60/15/45 59/13/44 67/20/52 
# 15 polygons

